
<svg xmlns="http://www.w3.org/2000/svg" version="1.1" xmlns:xlink="http://www.w3.org/1999/xlink" preserveAspectRatio="none" x="0px" y="0px" width="512px" height="512px" viewBox="0 0 512 512">
<defs>
<g id="Layer0_0_FILL">
<path fill="#1C64F2" stroke="none" d="
M 256 510.25
L 256 510.25
Q 277.081640625 497.7474609375 295.95 483.95 311.271484375 472.7435546875 325.15 460.7
L 256.1 420.3 256 510.25
M 422 340.65
Q 422.2005859375 340.2953125 422.4 339.9
L 256.1 242.65 256.05 269 256.1 328.45 256.1 359.4 365.8 420.6
Q 366.0068359375 420.4171875 366.2 420.2 371.5701171875 414.1603515625 376.65 407.95 402.601171875 376.4958984375 422 340.65
M 446.2 287.75
Q 459.7158203125 252.264453125 467.8 213.1 476.2025390625 172.4091796875 478.75 127.75
L 256.5 0.3 256.05 0.55 256 90.6 256.1 151.4 256.1 181.75 446.2 287.75 Z"/>

<path fill="#3F83F8" stroke="none" d="
M 256.05 359.4
L 256.1 359.4 256.1 328.45 131.15 401.5
Q 136.931640625 408.826953125 143.05 415.9 189.6521484375 469.7275390625 256 510.25
L 256.1 420.3 256.05 420.3 256 420.25 256.05 359.4
M 256.05 181.75
L 256.1 181.75 256.1 151.4 59.3 266.5
Q 61.0255859375 271.8248046875 62.85 277.05 64.3810546875 281.3279296875 65.95 285.55 79.548046875 321.813671875 98.7 354.3 98.950390625 354.681640625 99.15 355.05
L 256.05 267.6 256.05 269 256.1 242.65 256 242.6 256.05 181.75
M 256 90.6
L 256.05 0.55 34.2 127.7
Q 36.6416015625 169.95390625 44.3 208.65
L 256 90.6 Z"/>
</g>

<path id="Layer0_0_1_STROKES" stroke="#000000" stroke-width="0.1" stroke-linejoin="round" stroke-linecap="round" fill="none" d="
M 255.64134826660157 190.00807723999026
L 255.5964553833008 189.98563079833986
M 255.5515625 244.62026977539062
L 255.64134826660157 244.66516265869143
M 255.64134826660157 349.51249160766605
L 255.5964553833008 349.4900451660156
M 255.5515625 404.1246841430664
L 255.61890182495114 404.1695770263672 255.64134826660157 404.19202346801757
M 255.5515625 484.954320526123
L 255.57400894165036 484.954320526123"/>
</defs>

<g transform="matrix( 0.897857666015625, 0, 0, 0.897857666015625, 25.7,26.8) ">
<use xlink:href="#Layer0_0_FILL"/>

<use xlink:href="#Layer0_0_1_STROKES" transform="matrix( 1.1137542724609375, 0, 0, 1.1137542724609375, -28.6,-29.8) "/>
</g>
</svg>
